<?xml version="1.0" encoding="UTF-8"?>
<svg width="1940px" height="1925px" viewBox="0 0 1940 1925" version="1.1" xmlns="http://www.w3.org/2000/svg" xmlns:xlink="http://www.w3.org/1999/xlink">
    <!-- Generator: Sketch 64 (93537) - https://sketch.com -->
    <title>travis-ci</title>
    <desc>Created with Sketch.</desc>
    <g id="Page-1" stroke="none" stroke-width="1" fill="none" fill-rule="evenodd">
        <g id="travis-ci" fill-rule="nonzero">
            <path d="M1934.71277,676.359629 C1933.80105,669.293809 1932.71459,662.227988 1931.25584,655.314121 C1929.94554,648.050003 1928.27195,640.856127 1926.24139,633.75957 L1920.83945,625.189414 C1898.58592,607.714805 1874.57732,594.510078 1850.20404,582.840078 C1830.08545,573.343008 1809.64775,565.061563 1788.96693,557.433516 C1731.33871,397.495254 1632.27287,255.677402 1502.01865,156.862285 C1367.38818,54.7269922 1209.03783,0.662070312 1044.12311,0.662070312 C879.200781,0.662070312 720.842832,54.7269922 586.212363,156.869883 C455.950547,255.677402 356.877109,397.502852 299.256484,557.479102 C278.628848,565.076758 258.153164,573.380996 238.064961,582.840078 C213.646094,594.510078 189.652695,607.714805 167.39916,625.189414 L161.982031,633.75957 C160.044187,640.877831 158.369036,648.065015 156.95998,655.306523 C155.562012,662.235586 154.513535,669.286211 153.510645,676.352031 C151.52782,690.344976 150.174075,704.419869 149.453496,718.534219 C148.02564,746.788582 148.861519,775.111906 151.953125,803.232891 C154.969945,831.425668 160.213506,859.335437 167.634688,886.700742 C171.529571,900.469674 176.080701,914.044463 181.27248,927.378594 C183.886074,934.110117 186.742793,940.796055 189.911016,947.474395 C191.476133,950.79457 193.178008,954.03877 194.925469,957.434922 C198.792676,964.212031 199.499258,965.534023 201.125156,967.94248 L208.434102,974.674004 C213.197832,977.120449 217.141016,978.981875 221.448887,981.025645 L234.038203,986.670703 C236.370684,987.628008 238.558809,988.570117 240.936875,989.527422 C183.764512,1042.38432 121.676465,1111.05193 67.9078516,1195.91775 L0,1303.03711 L95.327793,1219.36412 C96.9460938,1217.95096 176.881035,1148.7515 310.189512,1070.35889 L312.058535,1085.68336 C303.336426,1090.21916 261.420156,1112.21438 248.96,1122.63836 C228.30957,1139.78627 227.30668,1166.40086 232.837773,1216.05154 C235.671699,1241.50369 245.214355,1290.90365 258.084785,1336.20088 C280.254746,1414.14523 296.506133,1427.92738 310.774531,1431.15639 C317.209746,1432.69871 325.513984,1433.40529 334.859102,1433.40529 C360.394824,1433.40529 393.102734,1428.43643 414.444551,1421.99361 C439.478828,1499.8392 474.93709,1570.11752 518.167754,1631.79529 C516.078398,1632.35752 514.019434,1633.03371 511.930078,1633.62633 C485.930898,1621.56885 395.017344,1579.45504 364.45957,1565.71848 L300.60127,1536.96895 L338.369219,1595.94195 C341.11957,1600.19664 406.315059,1701.85328 459.536641,1770.36895 C509.324082,1834.26523 577.490254,1899.67346 706.118574,1899.67346 C721.602598,1899.67346 737.800801,1898.67057 754.492852,1896.83193 C792.84582,1892.42529 821.671328,1888.96836 843.582969,1886.15723 C978.608516,1935.76992 1127.49979,1938.82418 1268.7934,1885.2835 C1305.80026,1871.21196 1341.37937,1853.63993 1375.04662,1832.80648 C1429.52182,1819.72332 1489.11023,1805.5309 1518.54355,1797.25705 C1523.2617,1795.98064 1529.17268,1794.57508 1535.31918,1793.12393 C1576.33133,1783.69523 1644.87738,1767.78574 1681.42211,1694.6735 C1718.25555,1620.90785 1778.31502,1507.87752 1778.94563,1506.72268 L1807.03416,1453.99494 L1752.30824,1477.7832 C1749.38314,1479.11279 1680.04693,1509.30588 1644.02645,1528.18605 C1669.05313,1470.56543 1683.80018,1422.86734 1688.93619,1404.54939 C1709.10797,1409.41189 1739.01234,1408.78889 1761.00756,1408.78889 C1771.81902,1408.78889 1782.94199,1406.90467 1790.15977,1405.06604 C1804.45855,1401.43436 1815.49795,1391.93729 1836.25475,1311.5085 C1848.34262,1264.76012 1857.01154,1213.85582 1859.38961,1187.68949 C1863.98619,1136.77 1862.49705,1109.47922 1841.71746,1092.25533 C1831.36186,1083.70037 1800.97123,1067.33502 1785.5176,1059.2815 C1794.16373,1055.58145 1798.40322,1056.66791 1798.73752,1056.75908 L1812.76279,1003.5527 C1817.70127,1001.44055 1822.92846,999.320801 1828.86982,997.041504 C1837.34121,993.668145 1845.8126,990.317578 1854.29158,986.663105 L1866.80492,981.018047 C1871.16598,978.974277 1875.08637,977.120449 1879.8577,974.666406 L1887.16664,967.934883 C1888.74695,965.526426 1889.59789,964.204434 1890.56279,962.365801 C1895.19736,954.031172 1896.83086,950.786973 1898.37318,947.474395 C1901.54141,940.788457 1904.35254,934.10252 1907.01172,927.370996 C1912.19973,914.037887 1916.74332,900.462912 1920.62672,886.693145 C1928.06016,859.329514 1933.31141,831.419371 1936.33107,803.225293 C1939.46995,775.113965 1940.19068,746.7975 1938.77752,718.526621 C1938.09163,704.41196 1936.73518,690.33788 1934.71277,676.352031 L1934.71277,676.359629 Z" id="Path" fill="#0E0F0D"></path>
            <path d="M1132.55223,1772.04043 C1122.21941,1773.59035 1111.8866,1774.85156 1101.67535,1775.67211 C1095.0274,1775.99881 1088.05275,1776.6598 1081.69352,1776.6598 L1079.32305,1776.72059 C1087.30059,1758.94207 1093.36352,1745.11434 1097.92971,1734.64477 C1107.27482,1745.11434 1119.15756,1758.05314 1132.55223,1772.04043" id="Path" fill="#E1C5A2"></path>
            <path d="M1120.01609,977.128047 C1103.86348,990.241602 1086.84473,1002.45104 1069.11939,1013.16373 L1010.00203,1048.82713 C972.925469,1053.35533 940.741797,1062.51811 938.903164,1063.08033 C937.824297,1063.30826 936.806211,1063.8173 935.848906,1064.39473 C932.920821,1066.12431 930.740763,1068.8812 929.732793,1072.12914 L869.521367,1270.50395 L547.707441,1342.07387 L446.316719,1271.07377 L416.837812,1032.20346 C474.420449,1021.62752 551.392305,1009.42568 643.855781,999.047285 C633.778534,1011.08737 624.222041,1023.55391 615.212617,1036.41256 L560.167598,1115.42059 L640.330469,1061.98627 C641.546094,1061.15053 692.556758,1027.56889 776.055,986.708691 C867.014528,979.893211 958.196568,976.471889 1049.41107,976.451855 C1073.41967,976.451855 1096.92682,976.740566 1120.01609,977.135645 L1120.01609,977.128047 Z M619.102617,1246.23703 C641.971563,1233.87564 667.803594,1235.69148 708.245918,1235.78266 C712.553789,1235.85863 717.044004,1235.81305 721.69377,1235.69148 C725.682539,1235.69148 729.671309,1235.61551 733.903203,1235.49395 C775.583945,1235.07607 810.206465,1239.01926 809.575859,1173.63383 C808.960449,1108.2408 779.891816,1055.35352 738.241465,1055.76379 C696.606309,1056.13607 656.293145,1109.72994 658.785176,1175.09258 C659.446172,1192.11133 661.976191,1204.41193 665.972559,1213.24801 C629.678555,1222.37279 619.626855,1244.82387 619.09502,1246.23703 L619.102617,1246.23703 Z M1677.79043,1031.4209 L1648.81297,1234.52904 L1546.6017,1306.11416 L1225.20564,1269.58463 L1165.23734,1072.12154 C1163.90692,1067.74618 1160.45315,1064.34102 1156.05938,1063.07273 C1154.08398,1062.47252 1114.29506,1051.09883 1072.11287,1047.45195 L1079.83209,1046.94291 C1086.48004,1046.44146 1197.31465,1032.87205 1329.70381,987.255723 C1476.2626,998.500254 1595.98646,1016.48391 1677.79803,1031.4209 L1677.79043,1031.4209 Z M1472.44857,1219.4249 C1472.0307,1217.84459 1463.20982,1191.57189 1424.52256,1196.18367 C1428.95959,1186.45867 1430.96537,1173.33752 1429.5598,1155.33107 C1424.45418,1090.06721 1386.4507,1038.19801 1344.84594,1039.66436 C1303.19559,1041.10791 1276.5582,1095.21082 1278.86029,1160.69502 C1281.15479,1226.01967 1316.05842,1225.57141 1357.70877,1224.08227 C1413.64271,1223.01859 1444.35244,1205.84789 1472.44857,1219.4249 L1472.44857,1219.4249 Z" id="Shape" fill="#A89983"></path>
            <path d="M1362.4877,1101.92715 C1362.69524,1113.67068 1353.35256,1123.36354 1341.60934,1123.58807 C1335.96917,1123.68969 1330.52004,1121.5446 1326.46267,1117.62547 C1322.40531,1113.70634 1320.07268,1108.33481 1319.97881,1102.69451 C1319.86693,1097.05704 1322.00174,1091.60653 1325.91256,1087.54463 C1329.82339,1083.48273 1335.18911,1081.14297 1340.82678,1081.04119 C1346.47624,1080.91708 1351.9414,1083.05382 1356.00853,1086.97686 C1360.07566,1090.89991 1362.40804,1096.28449 1362.4877,1101.93475 M765.94252,1117.57832 C766.236024,1129.304 756.986491,1139.05645 745.261699,1139.38359 C739.605405,1139.55319 734.114482,1137.463 730.002728,1133.57508 C725.890974,1129.68717 723.497018,1124.32171 723.350059,1118.66479 C723.203189,1113.01852 725.309342,1107.54591 729.203641,1103.4549 C733.097941,1099.36389 738.460203,1096.99083 744.106855,1096.85951 C755.855451,1096.55761 765.627744,1105.83006 765.94252,1117.57832" id="Shape" fill="#FFFFFF"></path>
            <path d="M1818.08115,1120.76934 C1813.0591,1116.62102 1796.27588,1107.03277 1779.91812,1098.1891 L1752.98443,1286.99086 C1752.40797,1290.66829 1750.36929,1293.95647 1747.33178,1296.10805 L1708.78887,1323.06453 C1707.87715,1327.62312 1707.16297,1331.42955 1706.47918,1334.99285 C1744.3459,1344.31518 1781.12615,1317.0092 1801.77658,1297.30848 C1811.32684,1260.11035 1819.64627,1215.95277 1822.51818,1184.34652 C1826.91723,1135.35684 1823.02723,1124.84168 1818.08115,1120.77693 M1222.85797,1838.04127 C1197.85408,1829.15201 1174.93195,1814.64049 1154.98051,1794.91697 C1153.31662,1793.2227 1151.73631,1791.5892 1150.06482,1789.93291 C1134.45087,1793.11812 1118.66377,1795.3861 1102.78461,1796.72521 C1096.0075,1797.02912 1089.54189,1797.60654 1082.47607,1797.60654 L1072.0217,1797.69771 L1067.99494,1797.60654 C1044.09271,1833.10279 1003.91631,1852.61357 972.431621,1862.99957 C1065.95877,1879.04582 1168.86902,1854.4902 1222.85797,1838.04127 M399.522754,1375.66311 C398.687012,1372.81398 397.805684,1369.99525 396.992734,1367.13854 L346.92418,1332.09055 C343.803556,1329.88514 341.754741,1326.46861 341.279121,1322.67705 L316.867852,1124.42381 C298.800625,1134.06523 277.914668,1145.96316 272.360781,1150.62053 C267.528672,1154.6093 263.843809,1164.77496 269.063398,1212.00959 C273.029375,1247.52863 285.504727,1302.0874 298.245996,1342.97039 C323.599375,1362.36721 360.941855,1382.8049 399.522754,1375.66311 M1148.02105,1366.6143 C1142.66482,1366.00273 1138.18824,1362.2583 1136.63977,1357.09443 L1074.85562,1153.48484 C1064.49242,1152.13246 1055.29926,1151.3727 1047.53445,1151.3727 C1039.73926,1151.3727 1030.59168,1152.13246 1020.24367,1153.48484 L960.184199,1351.23664 C958.754867,1355.87544 954.946618,1359.39075 950.208477,1360.445 L921.489336,1366.84223 C919.058086,1376.9851 910.791836,1391.86891 884.162051,1400.02879 C841.189707,1413.13475 569.155625,1494.22453 538.134395,1489.81029 C520.021582,1487.27268 485.558613,1468.25574 460.068477,1452.88568 C449.864824,1428.86189 444.219766,1412.53453 442.928164,1408.65973 L442.928164,1408.58375 L442.852187,1408.65973 C446.461074,1419.20527 481.957324,1521.38615 554.081875,1621.33332 C631.403223,1598.54795 698.186621,1577.3049 719.543633,1570.55059 C763.032617,1503.47848 824.999102,1436.93061 869.004727,1434.65891 C876.758325,1434.26588 884.520402,1434.06321 892.283945,1434.05109 C913.846094,1434.05109 934.428145,1435.57822 953.53625,1437.84232 C937.307656,1423.11047 933.979883,1405.88658 931.624609,1398.23574 C931.624609,1398.23574 987.824473,1442.19578 1059.31082,1432.94943 C1130.91113,1423.78666 1175.32703,1382.55418 1175.32703,1382.55418 L1176.7326,1369.87369 L1148.01346,1366.6143" id="Shape" fill="#E1C5A2"></path>
            <path d="M1206.12793,1392.38555 C1191.2973,1388.54873 1181.95979,1382.43262 1176.04121,1376.05059 L1175.31184,1382.55418 C1175.31184,1382.55418 1175.06871,1412.60291 1143.93352,1435.88213 C1203.88662,1417.72373 1228.67777,1411.56963 1245.65854,1411.56963 C1264.34877,1411.56963 1273.58752,1419.37242 1281.69422,1426.22551 C1283.22895,1427.50191 1284.76367,1428.8467 1286.6023,1430.28266 C1325.94442,1461.26213 1365.19156,1492.36201 1404.34318,1523.58188 C1423.10939,1525.74721 1482.68262,1532.5623 1520.17705,1535.98125 C1541.76199,1537.99463 1561.31836,1539.62053 1580.46445,1539.62053 C1586.60336,1539.62053 1592.40797,1539.40779 1597.90107,1539.03551 C1617.67018,1501.16879 1635.87416,1459.29051 1652.07236,1413.11195 C1629.9024,1428.66436 1579.38559,1462.70186 1555.71129,1467.0857 C1524.92559,1472.85232 1249.54854,1403.64527 1206.12793,1392.38555" id="Path" fill="#E1C5A2"></path>
            <path d="M1899.06457,680.340801 C1898.52959,673.835935 1897.85324,667.343469 1897.036,660.868008 C1896.4905,656.241412 1895.80386,651.632552 1894.97703,647.047871 C1877.586,632.422383 1857.8093,619.392402 1837.23484,607.60084 C1814.95091,594.517676 1791.61852,582.885664 1767.79227,572.059004 C1744.17875,560.890449 1719.86625,550.793164 1695.47018,540.954199 C1683.26794,535.975384 1670.98335,531.200857 1658.62154,526.632617 C1646.31334,521.823301 1633.90637,517.340684 1621.44621,512.804883 C1647.55936,517.143145 1673.45977,523.114902 1699.17023,529.717266 C1715.89268,533.987148 1732.50875,538.842051 1749.01086,544.038848 C1631.51311,237.040352 1350.72652,37.138418 1044.11551,37.138418 C737.466504,37.138418 456.695117,237.047949 339.280938,544.038848 C355.767852,538.842051 372.421914,533.987148 389.068379,529.717266 C414.748457,523.107305 440.67166,517.143145 466.830391,512.81248 C454.294258,517.340684 441.910078,521.823301 429.541094,526.640215 C417.205704,531.222361 404.941632,535.994255 392.753242,540.954199 C368.341973,550.793164 344.082656,560.890449 320.385566,572.059004 C296.642891,582.885664 273.318086,594.517676 251.00377,607.60084 C230.421719,619.392402 210.690605,632.422383 193.261582,647.047871 C192.500013,651.642702 191.816126,656.250072 191.210215,660.868008 C190.424227,667.348013 189.737824,673.83971 189.15125,680.340801 C188.07364,693.437217 187.51604,706.57123 187.479766,719.711855 C187.198652,746.022539 188.984102,772.34082 192.29668,798.347598 C195.913164,824.460742 200.69209,850.399141 207.765508,875.494199 C211.19316,887.975131 215.209209,900.286959 219.800195,912.388418 C222.11748,918.367773 224.617109,924.301543 227.230703,930.007383 C228.514707,932.864102 229.844297,935.69043 231.22707,938.387598 L232.91375,941.578613 C234.835957,942.543516 236.864531,943.569199 238.763945,944.488516 L250.433945,950.057598 C256.952734,953.051074 265.97875,957.328555 273.432051,960.656328 C273.849922,960.276445 274.267793,959.896562 274.60209,959.531875 L252.933574,876.98334 C257.537754,875.744922 298.68666,865.108203 369.603184,851.576777 C363.857239,850.506631 358.139423,849.290613 352.455273,847.929902 C336.310254,843.887949 320.370371,838.995059 304.909141,832.76498 C297.265898,829.520781 289.721426,826.003066 282.534043,821.930723 C275.354258,817.782402 268.296035,813.125039 262.80293,806.902559 C340.701699,832.354707 501.718828,820.851855 644.858672,806.036426 C775.728301,792.535391 906.993008,783.820879 1038.88072,783.52457 C1170.73805,783.820879 1302.04834,792.535391 1432.84959,806.036426 C1576.05021,820.851855 1737.05975,832.354707 1814.95091,806.902559 C1809.51859,813.132637 1802.41479,817.782402 1795.29578,821.930723 C1788.04762,825.995469 1780.48795,829.528379 1772.84471,832.76498 C1757.39867,838.995059 1741.51957,843.887949 1725.35176,847.929902 C1722.9509,848.499727 1720.52725,849.001172 1718.13398,849.540605 C1795.93398,863.960957 1841.20082,875.699336 1846.00254,876.975742 L1825.29133,955.611484 C1829.50043,953.788047 1833.72473,951.964609 1837.78188,950.05 L1849.48227,944.480918 C1851.40447,943.561602 1853.40266,942.535918 1855.38564,941.571016 L1856.95836,938.38 C1858.37152,935.682832 1859.7467,932.856504 1861.01551,929.999785 C1863.6367,924.301543 1866.13633,918.360176 1868.41563,912.38082 C1872.99289,900.272979 1877.01372,887.962031 1880.46551,875.486602 C1887.55412,850.391543 1892.33305,824.445547 1895.89635,798.34 C1899.2773,772.333223 1901.06275,746.014941 1900.81963,719.704258 C1900.77899,706.564651 1900.196,693.432321 1899.07217,680.340801" id="Path" fill="#E0D896"></path>
            <path d="M1366.71959,527.635508 C1367.92002,562.751875 1367.06148,626.481016 1350.68854,686.107422 C1350.02754,688.386719 1350.11871,690.764785 1350.68854,692.968105 C1329.87488,690.789918 1309.0355,688.865036 1288.17502,687.193887 C1311.54541,638.189004 1316.65104,586.008301 1317.79068,567.614375 C1335.75154,554.873105 1353.61363,539.548633 1366.71959,527.635508 M770.508711,567.614375 C771.595176,586.000703 776.700801,638.059844 800.063594,687.072324 C779.223223,688.721016 758.382852,690.635625 737.588066,692.846543 C738.150293,690.734395 738.195879,688.394316 737.588066,686.11502 C721.253105,626.579785 720.386973,562.850645 721.511426,527.643105 C734.678164,539.548633 752.494668,554.873105 770.508711,567.614375 M1622.66184,741.615898 C1622.55837,742.207765 1622.41367,742.791675 1622.22877,743.363359 C1624.51566,744.024355 1626.75697,744.692949 1629.04387,745.43752 C1648.31152,751.751172 1667.60197,758.353535 1686.02629,766.86291 C1655.27098,746.881074 1635.76779,689.237656 1624.89555,645.17125 C1627.88902,702.852656 1622.94295,739.435371 1622.66184,741.615898 M695.869336,516.550527 L496.932305,573.130273 C485.01918,650.512402 488.650859,709.606973 490.565469,730.113047 L491.575957,729.505234 C491.575957,729.505234 498.056758,645.216836 511.269082,612.866016 C518.076582,596.257539 559.719336,585.666406 591.462344,578.076348 C623.281328,570.524277 674.010879,555.374551 683.857441,600.041172 C689.935566,627.643457 698.308184,650.595977 706.331309,667.523555 C693.552051,606.157285 694.365,546.150996 695.869336,516.550527 M1392.34648,516.550527 C1393.97238,547.30584 1394.72455,610.87543 1380.3042,674.695742 C1389.34541,657.357891 1399.38191,631.78418 1406.37936,600.041172 C1416.21072,555.374551 1466.94027,570.524277 1498.75166,578.083945 C1530.56305,585.674004 1572.15262,596.257539 1578.96012,612.866016 C1590.17426,640.247969 1596.5107,704.797656 1598.18219,724.004531 C1600.074,699.319746 1602.17096,643.84166 1591.3291,573.122676 L1392.34648,516.550527 M768.928398,533.774414 C775.934079,539.398785 783.157391,544.746569 790.581719,549.805469 C794.053848,552.221523 796.181191,556.157109 796.257168,560.396602 C796.302754,561.057598 797.791895,626.602578 826.769355,682.414961 C827.187227,683.250703 827.483535,684.162422 827.764648,685.028555 C899.805625,680.128066 972.059336,678.145078 1044.1307,678.099492 C1116.24766,678.145078 1188.45578,680.264824 1260.45877,685.195703 C1260.74748,684.245996 1261.0134,683.32668 1261.52244,682.414961 C1290.45432,626.602578 1292.01184,561.057598 1292.01184,560.396602 C1292.10768,556.15242 1294.23593,552.212476 1297.73287,549.805469 C1304.87212,544.914454 1311.82147,539.751863 1318.56564,534.329043 L1319.47736,531.77623 C1334.53592,385.164258 1306.91084,250.055137 1289.35266,183.302129 C1288.42574,228.948848 1277.60668,620.060996 1180.55422,620.060996 L912.676055,620.060996 C809.613848,620.060996 801.324805,179.093027 801.324805,179.093027 L796.014043,194.751797 C778.433066,265.068105 754.295313,394.311836 768.920801,533.774414 M466.017441,743.325371 C465.92627,742.755547 465.766719,742.200918 465.637559,741.615898 C465.318457,739.435371 460.34959,702.80707 463.343066,645.07248 C452.463223,689.169277 432.906855,746.911465 402.105957,766.885703 C420.530273,758.33834 439.904297,751.720781 459.202344,745.399531 C461.45125,744.692949 463.760938,744.024355 466.017441,743.325371" id="Shape" fill="#D7C184"></path>
            <path d="M1706.48678,1334.99285 C1704.85523,1343.67554 1702.9549,1352.30555 1700.78854,1360.87047 C1722.88252,1366.02168 1759.00178,1370.01805 1776.27125,1366.64469 C1783.66377,1358.61396 1793.21402,1330.76096 1801.78418,1297.30088 C1781.13375,1317.0092 1744.3459,1344.31518 1706.48678,1334.98525 M914.788203,1875.74844 C967.553926,1890.19918 1021.4517,1896.46725 1074.55172,1892.94953 C1127.82648,1889.32545 1196.98795,1877.8302 1270.4041,1848.02459 C1254.18011,1846.84403 1238.18831,1843.48877 1222.85797,1838.04887 C1168.86902,1854.50539 1065.96637,1879.06102 972.439219,1863.01477 C947.670859,1871.16705 928.266445,1873.69707 926.374629,1873.9326 C922.469434,1874.38086 919.232832,1874.92029 914.788203,1875.75604 M403.010078,1387.49266 C401.794453,1383.56467 400.677598,1379.60629 399.515156,1375.66311 C360.934258,1382.8049 323.591777,1362.36721 298.261191,1342.98559 C306.46666,1369.22789 314.740508,1389.85553 320.932598,1396.12359 C340.040703,1399.46656 382.306465,1393.60117 403.010078,1387.49266 M460.060879,1452.88568 C485.543418,1468.25574 520.006387,1487.28027 538.126797,1489.81029 C569.148027,1494.21693 841.182109,1413.13475 884.154453,1400.02879 C910.776641,1391.86891 919.058086,1376.9851 921.489336,1366.84223 L529.024805,1454.23047 C528.054462,1454.4095 527.071064,1454.5086 526.084512,1454.52678 L526.038926,1454.52678 C523.33416,1454.52678 520.621797,1453.69104 518.312109,1452.08793 L503.025625,1441.42082 L457.181367,1409.31313 L457.181367,1409.24475 L438.681074,1396.32873 C439.000176,1397.37721 439.380059,1398.41809 439.721953,1399.45137 C440.77043,1402.49803 441.803711,1405.58268 442.912969,1408.57615 L442.912969,1408.65213 C444.20457,1412.52693 449.849629,1428.86189 460.053281,1452.87049 M1663.9399,1377.49414 C1666.44713,1368.225 1668.90877,1358.84189 1671.15008,1349.36762 L1657.52748,1358.94066 L1620.85359,1384.62074 L1581.18623,1412.42816 C1579.15006,1413.83373 1576.77959,1414.67707 1574.34834,1414.85941 C1573.54299,1414.91274 1572.73451,1414.89494 1571.93229,1414.80623 L1176.7326,1369.87369 L1176.064,1376.03539 C1181.97498,1382.42502 1191.3125,1388.54113 1206.13553,1392.37795 C1249.55613,1403.63768 1524.92559,1472.83713 1555.71129,1467.06291 C1579.38559,1462.68666 1629.9176,1428.64916 1652.06477,1413.09676 C1652.25471,1412.55732 1652.44465,1412.03309 1652.61939,1411.50125 C1656.54338,1400.21365 1660.31722,1388.87442 1663.9399,1377.48654" id="Shape" fill="#9F8F78"></path>
            <path d="M1245.7877,845.050391 C1242.67266,849.077148 1239.26891,853.483789 1235.60684,858.080371 C1216.84063,881.800254 1190.84145,912.054121 1160.04814,941.738164 C1123.18807,940.580512 1086.31212,940.000487 1049.43387,939.998301 C986.775996,939.998301 926.701328,941.646992 869.658125,944.389746 C950.292051,910.975254 1047.11658,878.305332 1151.98703,858.703379 C1183.04009,852.786168 1214.33681,848.228295 1245.7877,845.042793 M774.079609,881.13166 C745.261699,901.356621 712.796914,927.127871 681.289434,958.430215 C611.324181,965.412358 541.584279,974.493113 472.163945,985.660215 C561.421211,944.655664 663.305781,906.87252 774.079609,881.13166 M1759.92109,1047.71027 L1727.06883,1277.28865 L1569.84293,1387.45467 L1159.79742,1340.82785 L1098.10445,1137.54496 C1096.6121,1132.61051 1092.44141,1128.95563 1087.35377,1128.12387 C1072.17365,1125.66982 1058.74859,1124.47699 1047.53445,1124.47699 C1036.28992,1124.47699 1022.87246,1125.66982 1007.59357,1128.12387 C1002.53495,1129.00283 998.394862,1132.64118 996.873281,1137.54496 L936.684648,1335.88178 L528.956426,1426.59779 L367.369473,1313.41551 L335.482109,1055.75619 C342.513345,1051.83685 349.553859,1047.93417 356.603594,1044.0482 C366.624902,1041.89047 377.877031,1039.61117 390.321992,1037.2483 L420.332734,1280.3809 C420.750605,1284.15693 422.877949,1287.5227 426.000586,1289.69562 L537.192285,1367.59439 C539.425996,1369.13672 542.16875,1370.01045 544.850723,1370.01045 C545.846016,1370.01045 546.80332,1369.87369 547.851797,1369.67615 L883.075586,1295.09756 C884.230617,1294.8111 885.351411,1294.40099 886.418555,1293.87434 C889.503203,1292.20285 891.980039,1289.36893 892.990527,1285.85121 L953.399492,1087.09652 C969.590098,1082.9558 1011.0809,1073.2308 1047.52686,1073.2308 C1083.90443,1073.2308 1125.38004,1082.9558 1141.61623,1087.09652 L1201.98721,1285.85121 C1203.52953,1290.98723 1208.04254,1294.74047 1213.3533,1295.34828 L1548.63787,1333.44293 C1551.85168,1333.82281 1555.16426,1332.92629 1557.83104,1331.05727 L1669.06072,1253.30285 C1672.0542,1251.13752 1674.11316,1247.77936 1674.6298,1244.12488 L1704.32145,1036.36697 C1726.61297,1040.63686 1745.25002,1044.54965 1759.92109,1047.71027 M1801.31312,903.711895 L1772.44203,1013.20172 C1713.41584,1000.17934 1583.79223,974.628418 1407.33666,957.434922 C1464.96488,932.856504 1523.67197,902.063203 1577.31902,863.482305 C1682.31863,878.31293 1759.41205,894.237617 1801.31312,903.711895 M297.645781,903.711895 L305.668906,934.026543 C325.233169,918.440432 345.368101,903.584425 366.032285,889.489082 C337.761406,894.913809 314.70252,899.852285 297.645781,903.711895" id="Shape" fill="#6E6A67"></path>
            <path d="M1429.75734,842.649531 C1385.56938,840.142305 1341.4042,838.030156 1297.18584,836.199121 C1292.24537,843.495019 1287.16668,850.696365 1281.95254,857.799258 C1258.26305,889.846172 1211.56785,948.272148 1151.70592,998.401484 C1196.74482,984.133086 1375.41131,924.195176 1465.90699,844.875645 C1453.85972,844.091853 1441.80976,843.349811 1429.75734,842.649531 M1105.96043,830.979531 L1106.14277,830.933945 C1083.72969,830.645234 1061.30141,830.402109 1038.92631,830.318535 L1038.88072,830.318535 C1005.91449,830.409707 973.031836,830.827578 940.065605,831.397402 L879.284355,860.207715 C878.962738,860.333711 878.66083,860.505133 878.387832,860.716758 C869.240254,865.153789 789.449668,905.421367 714.324043,977.257207 C720.896016,973.792676 727.863066,970.206582 735.042852,966.567305 C776.130977,938.957422 885.711973,873.57959 1056.11221,830.493281 C1072.72828,830.592051 1089.35195,830.69082 1105.95283,830.979531 M732.452051,838.318867 C704.310332,839.618066 676.153418,841.061621 648.04209,842.649531 C615.432949,844.472969 582.930176,846.676289 550.450195,849.122734 C534.251992,850.36875 518.030996,851.751523 501.969551,853.438203 C497.30459,853.894063 492.745996,854.395508 488.179805,854.980527 C445.739297,880.349102 283.316602,982.317246 171.722227,1115.76248 C173.644434,1113.4452 175.627422,1111.1583 177.595215,1108.87141 C384.198281,932.605781 610.707207,863.998945 732.452051,838.318867 M1667.13852,1563.18086 L1663.41566,1565.09547 C1642.69686,1575.99051 1615.55043,1581.31646 1580.46445,1581.31646 C1559.5785,1581.31646 1539.09521,1579.569 1516.39342,1577.51764 C1471.0658,1573.36932 1394.32947,1564.3433 1393.54691,1564.19895 L1387.68152,1563.58354 L1383.03936,1559.83789 C1382.33277,1559.37443 1315.1467,1505.78057 1260.82346,1463.07414 C1258.60494,1461.28109 1256.61436,1459.57922 1254.79092,1458.13566 C1249.06229,1453.23518 1249.06229,1453.23518 1245.64334,1453.23518 C1228.20672,1453.23518 1177.55314,1468.96232 1066.61977,1503.32652 L1059.81227,1505.50705 L1053.07314,1502.94664 C1052.31338,1502.7567 979.543027,1475.76982 892.306738,1475.76982 C885.164941,1475.76982 878.03834,1475.94457 871.109277,1476.28646 C862.37957,1476.73473 813.351895,1500.02914 750.610449,1599.21654 L746.591289,1605.61377 L739.373516,1607.92346 C738.325039,1608.26535 630.392734,1643.09301 515.91125,1675.83131 L508.526328,1677.92066 L501.460508,1674.66127 C500.723535,1674.41055 456.018926,1653.61576 413.41127,1634.08979 C416.549102,1635.54854 419.709727,1636.97689 422.855156,1638.43564 C464.915781,1674.73725 545.458535,1744.55971 554.400977,1754.23152 C555.639395,1755.62189 557.364063,1757.32377 559.41543,1759.25357 C557.342556,1756.8943 555.321103,1754.49035 553.3525,1752.0434 L553.276523,1751.96742 L553.284121,1751.97502 C571.837598,1769.56359 592.548809,1784.7665 615.174629,1795.464 C626.464746,1800.76717 638.301895,1804.8775 650.336582,1806.87568 C656.407109,1807.86338 662.295293,1808.36482 668.441797,1808.36482 C674.664277,1808.36482 681.023516,1808.18248 687.375156,1807.87098 C712.538594,1806.57938 737.937559,1804.64957 763.275742,1802.19553 C788.575938,1799.91623 813.898926,1797.38621 839.176328,1794.31676 C864.42334,1791.5968 889.670352,1788.42098 914.697031,1784.53857 C927.233164,1782.71514 939.69332,1780.64098 951.864766,1777.94381 C957.844121,1776.53064 964.074199,1774.97313 968.807539,1772.84578 C973.130605,1770.77922 978.365391,1766.6233 982.96957,1762.66492 C992.390664,1754.55822 1001.48506,1745.5702 1010.48828,1736.60496 C1019.51434,1727.57518 1028.38963,1718.39594 1037.11047,1709.07105 C1051.9335,1693.54904 1064.63678,1677.06213 1078.98875,1661.08426 C1080.82738,1659.09367 1082.704,1656.98152 1084.61102,1654.93016 C1084.61102,1654.96814 1084.61102,1654.96814 1084.64141,1654.96814 L1084.80855,1655.15809 C1087.80203,1657.30822 1090.78791,1659.48875 1093.71301,1661.78324 C1110.98248,1674.66127 1128.81418,1688.60297 1146.01527,1700.63766 C1168.19283,1716.22045 1190.64391,1731.83363 1213.86994,1744.82563 C1219.66695,1748.05463 1225.6615,1751.0709 1231.38254,1752.96271 C1232.12711,1753.23623 1232.75012,1753.36539 1233.31994,1753.44896 C1233.74541,1753.70729 1235.27254,1753.95041 1235.44729,1753.95041 C1236.57934,1754.11756 1238.09127,1754.19354 1239.55002,1754.2923 C1242.68025,1754.33029 1245.91686,1754.19354 1249.16105,1754.04158 C1262.25941,1753.12986 1275.54771,1751.22285 1288.85121,1749.14109 C1315.40502,1745.00037 1342.0348,1740.22145 1368.50504,1734.91828 C1395.03605,1729.84305 1421.53668,1724.40313 1447.87016,1718.54533 C1474.3027,1712.92349 1500.62575,1706.79867 1526.825,1700.1742 C1539.82459,1696.67168 1552.83938,1693.44268 1564.441,1687.87359 C1576.29334,1682.3577 1587.28715,1674.79043 1597.41482,1666.11391 C1617.85252,1648.70768 1635.03082,1627.13033 1649.30682,1603.63078 L1649.26883,1603.70676 C1656.28096,1590.68864 1662.25603,1577.13804 1667.13852,1563.18086 M1171.8777,314.711191 L1218.59568,314.711191 L1218.59568,219.816465 L877.005059,219.816465 L877.005059,314.711191 L923.730645,314.711191 L923.730645,266.519258 L1020.31965,266.519258 L1020.31965,559.598848 L980.553516,559.598848 L980.553516,613.998066 L1115.03203,613.998066 L1115.03203,559.598848 L1075.2583,559.598848 L1075.2583,266.519258 L1171.8777,266.519258 L1171.8777,314.711191" id="Shape" fill="#CC324A"></path>
            <path d="M1525.32066,849.077148 C1525.23867,849.025189 1525.14418,848.996316 1525.04715,848.993574 C1505.70589,847.539164 1486.35691,846.189294 1467.00105,844.944023 L1465.8918,844.875645 C1375.38852,924.195176 1196.73723,984.133086 1151.69072,998.401484 C1150.81699,999.146055 1149.95846,999.890625 1149.08473,1000.62 C1207.07004,990.18082 1293.68332,969.484805 1383.57879,929.680684 C1427.78955,910.109121 1472.79047,885.940977 1515.59566,856.059395 C1518.90064,853.764902 1522.10686,851.364043 1525.32066,849.077148 M1056.11221,830.485684 C885.711973,873.564395 776.130977,938.942227 735.035254,966.552109 C772.976144,947.248175 811.618984,929.356094 850.884316,912.912656 C855.621358,910.941966 860.364854,908.986826 865.114727,907.047266 C866.603867,906.439453 868.077812,905.831641 869.574551,905.231426 C873.517734,903.635918 877.506504,902.063203 881.510469,900.460098 C883.74418,899.593965 885.9475,898.712637 888.196406,897.846504 C891.797695,896.43334 895.436973,895.035371 899.099043,893.629805 C901.841797,892.588926 904.584551,891.540449 907.357695,890.514766 C910.715859,889.223164 914.096816,887.961953 917.508164,886.715938 C920.691582,885.538301 923.920586,884.375859 927.119199,883.221016 C930.279824,882.066172 933.417656,880.941719 936.601074,879.80207 C940.225156,878.525664 943.879629,877.264453 947.556895,875.980449 C950.459199,874.985156 953.346309,873.974668 956.263809,872.979375 C960.564082,871.53582 964.894746,870.092266 969.248203,868.663906 C971.641465,867.87375 974.011934,867.083594 976.412793,866.301035 C983.220293,864.097715 990.10377,861.90959 997.032832,859.789844 C1012.15217,855.147676 1027.5982,850.718242 1043.30256,846.455957 C1064.06156,840.79379 1084.95354,835.63096 1105.96043,830.971934 C1089.35195,830.69082 1072.72828,830.592051 1056.11221,830.485684 M732.452051,838.318867 C610.707207,863.998945 384.198281,932.605781 177.595215,1108.87141 C175.627422,1111.1583 173.644434,1113.4376 171.722227,1115.76248 C276.744629,1042.749 457.264941,934.224082 680.438496,868.200449 C687.633477,866.073105 694.896836,863.998945 702.175391,861.947578 C739.90075,851.373295 778.042404,842.344814 816.504922,834.884727 C788.507559,835.88002 760.479805,837.042461 732.452051,838.318867 M1707.36051,1543.71566 C1705.22142,1544.69657 1703.08896,1545.69189 1700.96328,1546.70154 C1699.80084,1547.23338 1698.68398,1547.76521 1697.51395,1548.29705 L1694.7484,1549.61145 L1690.5241,1551.62482 C1689.94668,1551.92113 1689.33127,1552.19465 1688.73105,1552.50615 C1687.12795,1553.26592 1685.54004,1554.00289 1683.99771,1554.77025 L1682.95684,1555.28689 C1681.26256,1556.12264 1679.57588,1556.93559 1677.94238,1557.74854 L1677.41814,1557.99926 C1673.78646,1559.7923 1670.35232,1561.52457 1667.13852,1563.16566 C1662.24131,1577.14012 1656.2484,1590.7061 1649.21564,1603.73715 L1649.29162,1603.63838 C1649.25363,1603.68396 1649.21564,1603.71436 1649.19285,1603.78273 C1634.93965,1627.18352 1617.77654,1648.70008 1597.39203,1666.08352 C1587.26436,1674.76004 1576.25535,1682.3273 1564.4258,1687.8432 C1552.80139,1693.41229 1539.7942,1696.63369 1526.80221,1700.14381 C1500.66627,1706.72338 1474.3176,1712.90787 1447.83977,1718.50734 C1421.47338,1724.36252 1395.02041,1729.82079 1368.48984,1734.88029 C1342.00441,1740.20625 1315.38982,1744.97758 1288.81322,1749.1107 C1275.52492,1751.19246 1262.24422,1753.09947 1249.13066,1754.00359 C1245.9354,1754.18598 1242.73526,1754.26959 1239.53482,1754.25432 C1238.15812,1754.19617 1236.78434,1754.08211 1235.41689,1753.91242 C1234.69349,1753.84569 1233.98275,1753.6795 1233.30475,1753.41857 C1232.63821,1753.33648 1231.98471,1753.17055 1231.35975,1752.92473 C1225.62352,1751.0557 1219.65176,1748.00904 1213.84715,1744.79523 C1190.62871,1731.78805 1168.16244,1716.19006 1145.98488,1700.60727 C1128.81418,1688.56498 1110.94449,1674.62328 1093.68262,1661.74525 L1092.17828,1663.8802 L1092.28465,1663.99416 C1093.35592,1664.96666 1094.44238,1665.86318 1095.51365,1666.80529 L1095.43768,1666.75971 C1094.64752,1666.16709 1093.89535,1665.58967 1093.15838,1665.05783 L1107.63191,1682.31971 C1107.6775,1682.37289 1108.22453,1683.04148 1109.2882,1684.2799 C1116.67312,1692.95643 1147.58039,1728.80977 1184.27707,1765.21773 C1212.21365,1792.91119 1245.91686,1806.89848 1284.58133,1806.89848 C1297.77846,1806.89848 1311.65178,1805.16621 1325.66945,1801.83084 C1338.63105,1798.64742 1352.7399,1795.28926 1367.19064,1791.79434 C1410.04902,1781.59828 1457.52678,1770.22459 1489.04186,1762.04191 C1491.13881,1761.48729 1493.18258,1760.96305 1495.14277,1760.43881 C1499.6026,1759.26117 1503.64455,1758.1823 1507.26104,1757.17941 C1513.4217,1755.47391 1519.62888,1753.94111 1525.87529,1752.58283 C1564.0915,1743.71637 1616.36338,1731.59051 1644.04164,1676.10482 C1652.34226,1659.56112 1660.72511,1643.05881 1669.18988,1626.5985 C1683.05377,1599.66309 1697.02851,1572.78489 1711.11375,1545.96457 C1711.11375,1545.94938 1711.12895,1545.94938 1711.12895,1545.94938 L1713.8793,1540.6918 L1707.36051,1543.71566 M1081.47318,1663.40914 L1078.98875,1661.05387 C1064.62918,1677.03934 1051.9183,1693.52625 1037.11047,1709.05586 C1028.38956,1718.3782 1019.51428,1727.5549 1010.48828,1736.58217 C1001.48506,1745.5474 992.383066,1754.56582 982.96957,1762.64213 C978.357793,1766.60811 973.123008,1770.77162 968.807539,1772.82299 C964.081797,1774.95033 957.844121,1776.51545 951.864766,1777.92102 C939.708516,1780.62578 927.233164,1782.69234 914.697031,1784.52338 C889.677949,1788.39818 864.42334,1791.5968 839.176328,1794.29396 C813.898926,1797.36342 788.575938,1799.90104 763.275742,1802.17273 C737.945156,1804.62678 712.538594,1806.55658 687.375156,1807.86338 C681.023516,1808.15209 674.664277,1808.34963 668.441797,1808.34963 C662.295293,1808.34963 656.391914,1807.86338 650.336582,1806.85289 C638.294297,1804.8623 626.457148,1800.74437 615.174629,1795.44881 C592.556406,1784.75131 571.845195,1769.5408 553.284121,1751.95982 L553.3525,1752.02061 C555.859727,1755.10525 558.617676,1757.99996 561.254063,1760.94025 C560.615859,1760.35523 560.008047,1759.77021 559.41543,1759.22318 C557.364063,1757.30098 555.639395,1755.5991 554.393379,1754.20873 C545.44334,1744.52172 464.892988,1674.71445 422.847559,1638.41285 C419.702129,1636.9465 416.541504,1635.52574 413.403672,1634.05939 C421.355089,1645.84001 429.383451,1657.56851 437.488242,1669.24414 C449.882081,1687.1407 462.543734,1704.85029 475.468926,1722.36695 C481.035903,1729.89238 486.688931,1737.35377 492.426895,1744.74965 C538.141992,1803.5783 595.686641,1857.93953 706.118574,1857.93953 C719.946309,1857.93953 734.662969,1857.08859 749.767109,1855.37912 C753.284824,1854.99924 756.70377,1854.60416 760.069531,1854.20148 C763.306133,1853.8368 766.489551,1853.47971 769.574199,1853.11502 C865.600977,1842.07562 891.942051,1837.36508 906.559941,1834.84266 C910.343574,1834.18926 913.572578,1833.61943 917.0675,1833.10279 C918.42748,1832.91285 919.817852,1832.69252 921.291797,1832.49498 C921.823633,1832.44939 954.296016,1828.27828 986.039023,1812.83225 C1007.92027,1802.21072 1029.43684,1786.24045 1039.95959,1762.63453 C1066.53619,1703.18287 1071.93813,1688.97525 1072.15086,1688.44342 L1081.47318,1663.40914" id="Shape" fill="#CC324A"></path>
            <path d="M1341.60934,1123.59566 C1353.34412,1123.3587 1362.67838,1113.67797 1362.4877,1101.94234 C1362.40606,1096.29005 1360.07095,1090.90431 1356.00096,1086.98127 C1351.93098,1083.05822 1346.46306,1080.92262 1340.81158,1081.04879 C1335.1699,1081.14854 1329.79989,1083.48952 1325.88698,1087.55494 C1321.97408,1091.62037 1319.84006,1097.07594 1319.95602,1102.7173 C1320.17224,1114.46113 1329.86543,1123.8074 1341.60934,1123.59566 Z M1472.44857,1219.4249 C1444.35244,1205.84789 1413.64271,1223.03379 1357.70877,1224.08227 C1316.05842,1225.57141 1281.15479,1226.01967 1278.86029,1160.68742 C1276.5582,1095.21082 1303.19559,1041.10031 1344.83834,1039.65676 C1386.4507,1038.19801 1424.44658,1090.06721 1429.55221,1155.33107 C1430.96537,1173.33752 1428.97479,1186.45867 1424.52256,1196.18367 C1463.20982,1191.5643 1472.0307,1217.83699 1472.44857,1219.4249 L1472.44857,1219.4249 Z M745.269297,1139.38387 C756.994088,1139.05645 766.243622,1129.304 765.950117,1117.57832 C765.639455,1105.82707 755.865937,1096.55005 744.114453,1096.85191 C736.518257,1097.05821 729.609139,1101.30135 725.989696,1107.983 C722.370254,1114.66464 722.590366,1122.76969 726.567118,1129.24504 C730.543871,1135.72039 737.673101,1139.58229 745.269297,1139.376 L745.269297,1139.38387 Z M809.575859,1173.62623 C810.19127,1239.01166 775.56875,1235.07607 733.895605,1235.48635 C729.663711,1235.62311 725.674941,1235.67629 721.678574,1235.67629 C717.036406,1235.80545 712.546191,1235.85863 708.23832,1235.77506 C667.788398,1235.67629 641.963965,1233.87564 619.087422,1246.22943 C619.619258,1244.81627 629.678555,1222.37279 665.964961,1213.21762 C661.960996,1204.38154 659.446172,1192.08854 658.785176,1175.07738 C656.285547,1109.72234 696.606309,1056.12848 738.241465,1055.74859 C779.884219,1055.33832 808.952852,1108.2332 809.575859,1173.62623 Z M1598.19738,724.004531 C1597.89437,728.028058 1597.51441,732.04542 1597.05773,736.054414 C1580.55789,731.604541 1563.97967,727.450489 1547.33107,723.594258 C1492.32404,711.513984 1436.64082,702.556348 1380.68408,696.166719 C1378.75428,695.915996 1376.78648,695.786836 1374.81109,695.543711 C1375.19098,694.707969 1375.53287,693.879824 1375.78359,693.05168 C1377.45508,686.943164 1378.91383,680.827051 1380.3042,674.70334 C1394.72455,610.883027 1393.97238,547.321035 1392.34648,516.558125 L1591.3291,573.137871 C1602.17096,643.849258 1600.06641,699.319746 1598.19738,724.004531 L1598.19738,724.004531 Z M1350.69613,686.107422 C1350.02754,688.386719 1350.11871,690.764785 1350.69613,692.968105 C1329.87995,690.789857 1309.03804,688.864975 1288.17502,687.193887 C1311.54541,638.189004 1316.65104,586.008301 1317.79068,567.614375 C1335.75154,554.873105 1353.60604,539.548633 1366.71959,527.635508 C1367.92002,562.751875 1367.06148,626.481016 1350.68854,686.107422 L1350.69613,686.107422 Z M737.588066,692.838945 C738.150293,690.726797 738.195879,688.386719 737.588066,686.107422 C721.253105,626.56459 720.386973,562.843047 721.511426,527.635508 C734.670566,539.548633 752.48707,554.873105 770.508711,567.614375 C771.595176,586.000703 776.700801,638.059844 800.063594,687.072324 C779.223223,688.713418 758.390449,690.635625 737.588066,692.846543 L737.588066,692.838945 Z M707.539336,696.121133 C679.625547,699.524883 651.681367,703.042598 623.873945,707.654375 C596.1425,712.40291 568.403457,717.447754 540.907539,723.55627 C524.230684,727.431074 507.705781,731.533809 491.165684,736.008828 C491.01373,734.702031 490.808594,732.688652 490.573066,730.097852 C488.658457,709.58418 485.026777,650.504805 496.939902,573.115078 L695.869336,516.527734 C694.365,546.135801 693.552051,606.134492 706.338906,667.493164 C708.116758,676.017734 710.137734,684.542305 712.462617,693.021289 C712.720937,693.857031 713.055234,694.692773 713.419922,695.437344 C711.421738,695.688066 709.507129,695.862813 707.531738,696.113535 L707.539336,696.121133 Z M1704.84568,776.45875 C1703.15141,775.645801 1701.47992,774.817656 1699.87682,774.0275 C1697.41518,772.842266 1694.68762,771.489883 1691.56498,769.970352 C1689.65386,769.047154 1687.80158,768.006828 1686.01869,766.855312 C1667.60957,758.345937 1648.31152,751.751172 1629.04387,745.429922 C1626.76457,744.685352 1624.51566,744.016758 1622.23637,743.348164 C1622.41702,742.777851 1622.56166,742.196752 1622.66943,741.608301 C1622.95055,739.427773 1627.89662,702.837461 1624.91074,645.163652 C1623.64953,620.532051 1620.92197,592.056035 1615.76316,560.761289 C1614.93194,555.789624 1611.32154,551.736056 1606.47883,550.337305 L1578.11678,542.31418 C1572.01586,322.848281 1481.65693,219.717695 1478.83061,216.519082 C1559.54811,346.439004 1558.84152,500.511875 1557.43596,536.418398 L1381.5958,486.433418 C1381.46664,486.433418 1381.35268,486.433418 1381.18553,486.357441 C1380.44191,486.194426 1379.68796,486.08273 1378.92902,486.023145 C1378.76187,486.023145 1378.57193,485.992754 1378.28322,485.992754 C1377.31938,485.946436 1376.35365,486.028191 1375.41131,486.235879 C1375.27455,486.235879 1375.1226,486.365039 1374.94025,486.365039 C1374.151,486.530458 1373.38537,486.793326 1372.66096,487.147598 C1372.38744,487.276758 1372.13672,487.451504 1371.886,487.52748 C1371.29338,487.930156 1370.71596,488.264453 1370.13854,488.682324 C1370.00937,488.773496 1369.83463,488.849473 1369.71307,488.971035 C1369.53832,489.092598 1369.48514,489.221758 1369.37877,489.305332 C1369.21162,489.480078 1369.01408,489.594043 1368.87732,489.723203 C1368.71018,489.897949 1363.97684,494.53252 1356.6223,501.476777 C1357.13895,485.027852 1357.26811,459.856816 1355.39908,429.124297 L1354.82926,420.257832 C1349.29816,343.042852 1331.04859,234.586309 1276.50502,139.638398 C1276.97607,141.005977 1282.37041,156.755918 1289.34506,183.294531 C1306.89564,250.047539 1334.53592,385.15666 1319.46977,531.768633 C1319.39379,532.437227 1319.3482,533.098223 1319.27982,533.774414 C1319.05189,533.964355 1318.80117,534.139102 1318.56564,534.321445 C1311.81737,539.742341 1304.86557,544.904873 1297.72527,549.797871 C1294.22733,552.205823 1292.09455,556.143686 1291.98904,560.389004 C1291.98904,561.05 1290.44672,626.59498 1261.52244,682.407363 C1261.0058,683.319082 1260.73988,684.238398 1260.44357,685.188105 C1188.44818,680.249629 1116.24006,678.145078 1044.12311,678.091895 C972.044141,678.13748 899.798027,680.120469 827.757051,685.020957 C827.46834,684.147227 827.179629,683.235508 826.761758,682.399766 C797.784297,626.59498 796.295156,561.05 796.24957,560.381406 C796.167451,556.144919 794.052642,552.206511 790.566523,549.797871 C783.142818,544.741558 775.921938,539.393696 768.920801,533.766816 C754.287715,394.296641 778.433066,265.060508 796.006445,194.736602 C804.348672,161.3525 811.232148,141.173125 811.77918,139.630801 C732.634395,277.345918 729.891641,443.514258 731.646699,501.46918 C724.163008,494.524922 719.52084,489.897949 719.399277,489.715605 C719.26252,489.586445 719.019395,489.47248 718.852246,489.297734 L718.571133,488.95584 C718.434375,488.841875 718.274824,488.765898 718.107676,488.674727 C717.548079,488.281574 716.964454,487.923787 716.360215,487.603457 C716.071504,487.443906 715.85877,487.26916 715.524473,487.14 C714.85571,486.777953 714.127495,486.538646 713.374336,486.433418 C713.161602,486.357441 713.002051,486.228281 712.865293,486.228281 C711.906761,486.02573 710.92663,485.944052 709.947793,485.985156 C709.704668,485.985156 709.446348,486.015547 709.203223,486.015547 C708.489043,486.091523 707.797656,486.175098 707.053086,486.349844 C706.87834,486.42582 706.794766,486.42582 706.627617,486.42582 L530.848242,536.410801 C529.435078,500.49668 528.675313,346.423809 609.392812,216.511484 C606.596875,219.725293 516.253145,322.863477 510.106641,542.329375 L481.881348,550.344902 C476.982178,551.689416 473.318154,555.769132 472.50584,560.784082 C467.894843,588.691651 464.835883,616.83357 463.343066,645.080078 C460.364785,702.822266 465.318457,739.442969 465.637559,741.623496 C465.766719,742.200918 465.92627,742.763145 466.017441,743.332969 C463.768535,744.031953 461.45125,744.700547 459.202344,745.407129 C439.904297,751.728379 420.537871,758.353535 402.113555,766.893301 C400.440307,767.971943 398.705042,768.951201 396.916758,769.825996 L396.628047,769.985547 C393.490215,771.505078 390.762656,772.857461 388.301016,774.042695 L383.977949,776.154844 C383.06623,776.68668 382.124121,777.142539 381.227598,777.681973 C394.272773,772.561152 407.766211,768.823105 421.244453,765.510527 C434.7475,762.149871 448.34257,759.170407 462.013477,756.575684 C489.387832,751.485254 516.822969,747.063418 544.432852,743.705254 C571.966758,740.08877 599.614629,737.102891 627.308086,734.785605 C655.009141,732.422734 682.664609,730.090254 710.426445,728.487148 C821.450996,721.915176 932.764258,719.841016 1044.11551,719.803027 C1155.50475,719.879004 1266.80281,721.626465 1377.81217,728.44916 C1405.5892,730.052266 1433.23707,732.369551 1460.98371,734.717227 C1488.71516,737.0725 1516.27186,740.096367 1543.79816,743.712852 C1571.41564,747.033027 1598.90396,751.43207 1626.23273,756.552891 C1639.89183,759.127864 1653.46998,762.115107 1666.94857,765.510527 C1680.53318,768.830703 1693.95064,772.56875 1707.02621,777.68957 C1706.29684,777.248906 1705.55227,776.869023 1704.84568,776.45875 L1704.84568,776.45875 Z" id="Shape" fill="#0E0F0D"></path>
            <path d="M1075.2583,266.519258 L1075.2583,559.598848 L1115.03203,559.598848 L1115.03203,613.998066 L980.553516,613.998066 L980.553516,559.598848 L1020.31965,559.598848 L1020.31965,266.519258 L923.723047,266.519258 L923.723047,314.718789 L877.020254,314.718789 L877.020254,219.824062 L1218.59568,219.824062 L1218.59568,314.718789 L1171.88529,314.718789 L1171.88529,266.51166 L1075.2583,266.51166 L1075.2583,266.519258 Z M1253.76523,349.804766 L1253.76523,184.684902 L841.934277,184.684902 L841.934277,349.804766 L958.885,349.804766 L958.885,301.605234 L985.157695,301.605234 L985.157695,524.444492 L945.482734,524.444492 L945.482734,649.030859 L1150.16359,649.030859 L1150.16359,524.429297 L1110.35188,524.429297 L1110.35188,301.590039 L1136.72334,301.590039 L1136.72334,349.797168 L1253.76523,349.797168 L1253.76523,349.804766 Z" id="Shape" fill="#0E0F0D"></path>
        </g>
    </g>
</svg>